<?xml version="1.0" standalone="no"?>
<!DOCTYPE svg PUBLIC "-//W3C//DTD SVG 20010904//EN"
 "http://www.w3.org/TR/2001/REC-SVG-20010904/DTD/svg10.dtd">
<svg version="1.0" xmlns="http://www.w3.org/2000/svg"
 width="700.000000pt" height="700.000000pt" viewBox="0 0 700.000000 700.000000"
 preserveAspectRatio="xMidYMid meet">
<metadata>
Created by potrace 1.11, written by Peter Selinger 2001-2013
</metadata>
<g transform="translate(0.000000,700.000000) scale(0.100000,-0.100000)"
fill="#000000" stroke="none">
<path d="M1500 6990 c-25 -4 -65 -11 -90 -15 -105 -15 -267 -68 -384 -126
-464 -229 -779 -678 -833 -1185 -9 -84 -10 -3851 -1 -3949 44 -482 353 -941
789 -1173 126 -66 323 -134 464 -158 22 -4 336 -9 698 -11 l659 -4 33 25 c71
55 66 152 -12 203 -24 16 -74 18 -637 19 -698 1 -723 3 -911 67 -238 82 -469
253 -609 451 -106 150 -191 354 -221 534 -21 128 -20 3916 1 4037 95 538 513
951 1049 1036 117 18 3847 20 3985 2 357 -47 675 -245 878 -544 83 -122 147
-272 185 -434 20 -88 21 -112 24 -1095 2 -681 7 -1014 14 -1032 36 -88 162
-100 216 -20 17 25 18 82 18 997 0 534 -3 1002 -7 1040 -17 167 -64 334 -136
485 -56 117 -76 151 -154 255 -182 245 -438 431 -730 529 -224 75 -44 70
-2258 72 -1092 1 -2005 -2 -2030 -6z"/>
<path d="M2570 6122 c-13 -9 -38 -32 -55 -51 -16 -19 -34 -39 -40 -45 -5 -7
-35 -41 -65 -76 -30 -36 -57 -67 -60 -70 -3 -3 -25 -30 -50 -60 -25 -30 -54
-64 -65 -76 -11 -12 -31 -34 -44 -50 -13 -16 -38 -45 -55 -65 -17 -19 -53 -62
-81 -94 -27 -32 -57 -66 -65 -75 -8 -10 -31 -37 -52 -61 -20 -24 -44 -54 -55
-65 -10 -12 -38 -45 -62 -73 -24 -28 -47 -51 -51 -51 -4 0 -49 32 -101 70 -52
39 -105 78 -118 88 -28 20 -131 97 -146 110 -85 69 -133 97 -171 97 -56 0 -94
-23 -115 -69 -19 -44 -17 -80 10 -116 10 -14 92 -80 182 -148 90 -68 171 -128
179 -135 62 -51 242 -178 264 -187 62 -23 98 -2 202 122 43 51 81 95 84 98 3
3 35 39 70 81 36 42 76 89 90 105 14 16 137 159 274 319 137 159 255 300 263
312 18 27 20 73 3 112 -25 62 -116 90 -170 53z"/>
<path d="M3463 5522 c-12 -2 -36 -19 -53 -38 -53 -61 -35 -155 36 -189 29 -14
165 -15 1171 -13 962 3 1141 5 1159 17 55 36 71 126 33 175 -44 56 17 53
-1199 52 -619 0 -1135 -2 -1147 -4z"/>
<path d="M2569 4402 c-14 -9 -41 -35 -60 -57 -19 -22 -36 -42 -39 -45 -3 -3
-57 -66 -120 -140 -63 -74 -127 -148 -141 -165 -15 -16 -110 -128 -212 -247
-221 -259 -223 -261 -234 -257 -4 2 -115 84 -245 182 -249 188 -277 202 -338
177 -64 -27 -93 -118 -56 -175 23 -35 605 -470 640 -479 59 -15 91 8 218 157
67 78 124 144 127 147 4 3 42 48 86 100 44 52 82 97 85 100 3 3 32 37 65 75
33 39 62 72 65 75 3 3 39 45 80 95 41 49 82 96 90 105 93 101 170 200 171 223
2 43 -3 71 -18 94 -34 51 -115 69 -164 35z"/>
<path d="M3454 3800 c-41 -16 -74 -68 -74 -116 0 -37 6 -51 34 -82 l34 -37
1144 -2 c1250 -2 1185 -5 1221 56 9 16 17 48 17 70 0 33 -7 49 -34 79 l-34 37
-1144 2 c-629 0 -1152 -3 -1164 -7z"/>
<path d="M4817 3304 c-467 -53 -876 -281 -1161 -649 -144 -185 -276 -461 -276
-577 0 -98 141 -149 206 -76 12 13 33 59 49 103 50 144 158 337 237 426 66 74
89 99 144 149 81 74 98 88 180 142 187 123 395 202 624 236 60 9 301 9 373 0
382 -49 745 -286 969 -634 26 -41 108 -199 108 -209 0 -3 -126 -5 -280 -5
l-280 0 0 -120 c0 -66 3 -121 8 -121 4 -1 224 -2 490 -3 l482 -1 1 30 c1 39 1
891 0 928 l-1 27 -120 0 -120 0 -1 -27 c0 -16 0 -133 0 -260 -1 -128 -2 -233
-4 -233 -1 0 -23 35 -47 78 -136 232 -360 459 -578 586 -164 95 -390 177 -550
200 -19 2 -57 8 -84 12 -82 11 -255 11 -369 -2z"/>
<path d="M2593 2573 c-28 -5 -49 -28 -343 -373 -96 -113 -179 -210 -185 -216
-5 -6 -72 -84 -148 -173 -76 -88 -143 -161 -148 -161 -5 0 -116 80 -247 178
-131 99 -250 182 -263 185 -100 25 -180 -73 -140 -170 12 -30 569 -457 627
-482 65 -27 110 -3 198 103 21 25 204 240 407 476 203 237 376 441 385 455 35
54 10 140 -50 169 -33 16 -50 17 -93 9z"/>
<path d="M3275 1472 c-20 -3 -21 -8 -20 -490 l0 -487 123 -3 122 -3 0 233 0
233 48 -86 c123 -219 270 -388 463 -534 233 -175 522 -293 794 -323 80 -9 348
-8 410 1 357 52 642 193 891 442 226 226 388 523 451 831 17 82 17 85 -2 120
-40 74 -132 89 -189 32 -24 -25 -37 -51 -50 -104 -44 -185 -118 -358 -215
-505 -102 -153 -287 -325 -446 -414 -125 -70 -302 -132 -427 -150 -24 -3 -56
-9 -73 -11 -51 -9 -266 -6 -344 6 -344 49 -664 228 -894 498 -87 102 -201 303
-240 422 l-15 45 288 3 287 2 0 120 c-1 66 -3 120 -6 121 -15 3 -938 4 -956 1z"/>
</g>
</svg>
